<svg height="600" viewBox="0 0 800 600" width="800" xmlns="http://www.w3.org/2000/svg">
<g class="chart">
<g class="x-axis" transform="translate(60,550)">
<line shape-rendering="crispEdges" stroke="#bbbbbb" stroke-width="1" x1="0" x2="700" y1="0" y2="0"/>
<g class="tick" transform="translate(0,0)">
<line shape-rendering="crispEdges" stroke="#bbbbbb" stroke-width="1" x1="0" x2="0" y1="0" y2="6"/>
<text dy=".35em" fill="#080808" font-family="sans-serif" font-size="12px" text-anchor="middle" transform="rotate(0,0,16)" x="0" y="16">
0
</text>
</g>
<g class="tick" transform="translate(70,0)">
<line shape-rendering="crispEdges" stroke="#bbbbbb" stroke-width="1" x1="0" x2="0" y1="0" y2="6"/>
<text dy=".35em" fill="#080808" font-family="sans-serif" font-size="12px" text-anchor="middle" transform="rotate(0,0,16)" x="0" y="16">
10
</text>
</g>
<g class="tick" transform="translate(140,0)">
<line shape-rendering="crispEdges" stroke="#bbbbbb" stroke-width="1" x1="0" x2="0" y1="0" y2="6"/>
<text dy=".35em" fill="#080808" font-family="sans-serif" font-size="12px" text-anchor="middle" transform="rotate(0,0,16)" x="0" y="16">
20
</text>
</g>
<g class="tick" transform="translate(210.00002,0)">
<line shape-rendering="crispEdges" stroke="#bbbbbb" stroke-width="1" x1="0" x2="0" y1="0" y2="6"/>
<text dy=".35em" fill="#080808" font-family="sans-serif" font-size="12px" text-anchor="middle" transform="rotate(0,0,16)" x="0" y="16">
30
</text>
</g>
<g class="tick" transform="translate(280,0)">
<line shape-rendering="crispEdges" stroke="#bbbbbb" stroke-width="1" x1="0" x2="0" y1="0" y2="6"/>
<text dy=".35em" fill="#080808" font-family="sans-serif" font-size="12px" text-anchor="middle" transform="rotate(0,0,16)" x="0" y="16">
40
</text>
</g>
<g class="tick" transform="translate(350,0)">
<line shape-rendering="crispEdges" stroke="#bbbbbb" stroke-width="1" x1="0" x2="0" y1="0" y2="6"/>
<text dy=".35em" fill="#080808" font-family="sans-serif" font-size="12px" text-anchor="middle" transform="rotate(0,0,16)" x="0" y="16">
50
</text>
</g>
<g class="tick" transform="translate(420.00003,0)">
<line shape-rendering="crispEdges" stroke="#bbbbbb" stroke-width="1" x1="0" x2="0" y1="0" y2="6"/>
<text dy=".35em" fill="#080808" font-family="sans-serif" font-size="12px" text-anchor="middle" transform="rotate(0,0,16)" x="0" y="16">
60
</text>
</g>
<g class="tick" transform="translate(490,0)">
<line shape-rendering="crispEdges" stroke="#bbbbbb" stroke-width="1" x1="0" x2="0" y1="0" y2="6"/>
<text dy=".35em" fill="#080808" font-family="sans-serif" font-size="12px" text-anchor="middle" transform="rotate(0,0,16)" x="0" y="16">
70
</text>
</g>
<g class="tick" transform="translate(560,0)">
<line shape-rendering="crispEdges" stroke="#bbbbbb" stroke-width="1" x1="0" x2="0" y1="0" y2="6"/>
<text dy=".35em" fill="#080808" font-family="sans-serif" font-size="12px" text-anchor="middle" transform="rotate(0,0,16)" x="0" y="16">
80
</text>
</g>
<g class="tick" transform="translate(630,0)">
<line shape-rendering="crispEdges" stroke="#bbbbbb" stroke-width="1" x1="0" x2="0" y1="0" y2="6"/>
<text dy=".35em" fill="#080808" font-family="sans-serif" font-size="12px" text-anchor="middle" transform="rotate(0,0,16)" x="0" y="16">
90
</text>
</g>
<g class="tick" transform="translate(700,0)">
<line shape-rendering="crispEdges" stroke="#bbbbbb" stroke-width="1" x1="0" x2="0" y1="0" y2="6"/>
<text dy=".35em" fill="#080808" font-family="sans-serif" font-size="12px" text-anchor="middle" transform="rotate(0,0,16)" x="0" y="16">
100
</text>
</g>
<text fill="#080808" font-family="sans-serif" font-size="14px" text-anchor="middle" transform="rotate(0)" x="350" y="42">
Categories
</text>
</g>
<g class="y-axis" transform="translate(60,90)">
<line shape-rendering="crispEdges" stroke="#bbbbbb" stroke-width="1" x1="0" x2="0" y1="0" y2="460"/>
<g class="tick" transform="translate(0,49.60783)">
<line shape-rendering="crispEdges" stroke="#bbbbbb" stroke-width="1" x1="0" x2="-6" y1="0" y2="0"/>
<text dy=".35em" fill="#080808" font-family="sans-serif" font-size="12px" text-anchor="end" transform="rotate(0,-12,0)" x="-12" y="0">
A
</text>
</g>
<g class="tick" transform="translate(0,139.80391)">
<line shape-rendering="crispEdges" stroke="#bbbbbb" stroke-width="1" x1="0" x2="-6" y1="0" y2="0"/>
<text dy=".35em" fill="#080808" font-family="sans-serif" font-size="12px" text-anchor="end" transform="rotate(0,-12,0)" x="-12" y="0">
B
</text>
</g>
<g class="tick" transform="translate(0,230)">
<line shape-rendering="crispEdges" stroke="#bbbbbb" stroke-width="1" x1="0" x2="-6" y1="0" y2="0"/>
<text dy=".35em" fill="#080808" font-family="sans-serif" font-size="12px" text-anchor="end" transform="rotate(0,-12,0)" x="-12" y="0">
C
</text>
</g>
<g class="tick" transform="translate(0,320.19608)">
<line shape-rendering="crispEdges" stroke="#bbbbbb" stroke-width="1" x1="0" x2="-6" y1="0" y2="0"/>
<text dy=".35em" fill="#080808" font-family="sans-serif" font-size="12px" text-anchor="end" transform="rotate(0,-12,0)" x="-12" y="0">
D
</text>
</g>
<g class="tick" transform="translate(0,410.39215)">
<line shape-rendering="crispEdges" stroke="#bbbbbb" stroke-width="1" x1="0" x2="-6" y1="0" y2="0"/>
<text dy=".35em" fill="#080808" font-family="sans-serif" font-size="12px" text-anchor="end" transform="rotate(0,-12,0)" x="-12" y="0">
E
</text>
</g>
<text fill="#080808" font-family="sans-serif" font-size="14px" text-anchor="middle" transform="rotate(-90)" x="-230" y="-42">
Values
</text>
</g>
<g class="views" transform="translate(60,90)">
<g>
<g class="bar" transform="translate(0,369.80392)">
<rect fill="#898fd5" height="81.176476" shape-rendering="crispEdges" stroke="#2c2663" stroke-width="1" width="66.5" x="0" y="0"/>
<text dy=".35em" fill="#080808" font-family="sans-serif" font-size="14px" text-anchor="middle" x="33.25" y="40.588238">
9.5
</text>
</g>
<g class="bar" transform="translate(0,99.215675)">
<rect fill="#898fd5" height="81.176476" shape-rendering="crispEdges" stroke="#2c2663" stroke-width="1" width="84" x="0" y="0"/>
<text dy=".35em" fill="#080808" font-family="sans-serif" font-size="14px" text-anchor="middle" x="42" y="40.588238">
12
</text>
</g>
<g class="bar" transform="translate(0,9.019592)">
<rect fill="#898fd5" height="81.176476" shape-rendering="crispEdges" stroke="#2c2663" stroke-width="1" width="644" x="0" y="0"/>
<text dy=".35em" fill="#080808" font-family="sans-serif" font-size="14px" text-anchor="middle" x="322" y="40.588238">
92
</text>
</g>
<g class="bar" transform="translate(0,189.41176)">
<rect fill="#898fd5" height="81.176476" shape-rendering="crispEdges" stroke="#2c2663" stroke-width="1" width="243.59999" x="0" y="0"/>
<text dy=".35em" fill="#080808" font-family="sans-serif" font-size="14px" text-anchor="middle" x="121.799995" y="40.588238">
34.8
</text>
</g>
<g class="bar" transform="translate(0,279.60785)">
<rect fill="#898fd5" height="81.176476" shape-rendering="crispEdges" stroke="#2c2663" stroke-width="1" width="168" x="0" y="0"/>
<text dy=".35em" fill="#080808" font-family="sans-serif" font-size="14px" text-anchor="middle" x="84" y="40.588238">
24
</text>
</g>
</g>
</g>
<g class="title" transform="translate(400,25)">
<text dy=".35em" fill="#080808" font-family="sans-serif" font-size="24px" text-anchor="middle" x="0" y="0">
Horizontal Bar Chart
</text>
</g>
</g>
</svg>