<svg height="600" viewBox="0 0 800 600" width="800" xmlns="http://www.w3.org/2000/svg">
<g class="chart">
<g class="x-axis" transform="translate(60,550)">
<line shape-rendering="crispEdges" stroke="#bbbbbb" stroke-width="1" x1="0" x2="700" y1="0" y2="0"/>
<g class="tick" transform="translate(54.225327,0)">
<line shape-rendering="crispEdges" stroke="#bbbbbb" stroke-width="1" x1="0" x2="0" y1="0" y2="6"/>
<text dy=".35em" fill="#080808" font-family="sans-serif" font-size="12px" text-anchor="middle" transform="rotate(0,0,16)" x="0" y="16">
2015
</text>
</g>
<g class="tick" transform="translate(152.81688,0)">
<line shape-rendering="crispEdges" stroke="#bbbbbb" stroke-width="1" x1="0" x2="0" y1="0" y2="6"/>
<text dy=".35em" fill="#080808" font-family="sans-serif" font-size="12px" text-anchor="middle" transform="rotate(0,0,16)" x="0" y="16">
2016
</text>
</g>
<g class="tick" transform="translate(251.40843,0)">
<line shape-rendering="crispEdges" stroke="#bbbbbb" stroke-width="1" x1="0" x2="0" y1="0" y2="6"/>
<text dy=".35em" fill="#080808" font-family="sans-serif" font-size="12px" text-anchor="middle" transform="rotate(0,0,16)" x="0" y="16">
2017
</text>
</g>
<g class="tick" transform="translate(350,0)">
<line shape-rendering="crispEdges" stroke="#bbbbbb" stroke-width="1" x1="0" x2="0" y1="0" y2="6"/>
<text dy=".35em" fill="#080808" font-family="sans-serif" font-size="12px" text-anchor="middle" transform="rotate(0,0,16)" x="0" y="16">
2018
</text>
</g>
<g class="tick" transform="translate(448.59155,0)">
<line shape-rendering="crispEdges" stroke="#bbbbbb" stroke-width="1" x1="0" x2="0" y1="0" y2="6"/>
<text dy=".35em" fill="#080808" font-family="sans-serif" font-size="12px" text-anchor="middle" transform="rotate(0,0,16)" x="0" y="16">
2019
</text>
</g>
<g class="tick" transform="translate(547.1831,0)">
<line shape-rendering="crispEdges" stroke="#bbbbbb" stroke-width="1" x1="0" x2="0" y1="0" y2="6"/>
<text dy=".35em" fill="#080808" font-family="sans-serif" font-size="12px" text-anchor="middle" transform="rotate(0,0,16)" x="0" y="16">
2020
</text>
</g>
<g class="tick" transform="translate(645.77466,0)">
<line shape-rendering="crispEdges" stroke="#bbbbbb" stroke-width="1" x1="0" x2="0" y1="0" y2="6"/>
<text dy=".35em" fill="#080808" font-family="sans-serif" font-size="12px" text-anchor="middle" transform="rotate(0,0,16)" x="0" y="16">
2021
</text>
</g>
</g>
<g class="y-axis" transform="translate(60,90)">
<line shape-rendering="crispEdges" stroke="#bbbbbb" stroke-width="1" x1="0" x2="0" y1="0" y2="460"/>
<g class="tick" transform="translate(0,460)">
<line shape-rendering="crispEdges" stroke="#bbbbbb" stroke-width="1" x1="0" x2="-6" y1="0" y2="0"/>
<text dy=".35em" fill="#080808" font-family="sans-serif" font-size="12px" text-anchor="end" transform="rotate(0,-12,0)" x="-12" y="0">
0
</text>
</g>
<g class="tick" transform="translate(0,405.88235)">
<line shape-rendering="crispEdges" stroke="#bbbbbb" stroke-width="1" x1="0" x2="-6" y1="0" y2="0"/>
<text dy=".35em" fill="#080808" font-family="sans-serif" font-size="12px" text-anchor="end" transform="rotate(0,-12,0)" x="-12" y="0">
10
</text>
</g>
<g class="tick" transform="translate(0,351.7647)">
<line shape-rendering="crispEdges" stroke="#bbbbbb" stroke-width="1" x1="0" x2="-6" y1="0" y2="0"/>
<text dy=".35em" fill="#080808" font-family="sans-serif" font-size="12px" text-anchor="end" transform="rotate(0,-12,0)" x="-12" y="0">
20
</text>
</g>
<g class="tick" transform="translate(0,297.64703)">
<line shape-rendering="crispEdges" stroke="#bbbbbb" stroke-width="1" x1="0" x2="-6" y1="0" y2="0"/>
<text dy=".35em" fill="#080808" font-family="sans-serif" font-size="12px" text-anchor="end" transform="rotate(0,-12,0)" x="-12" y="0">
30
</text>
</g>
<g class="tick" transform="translate(0,243.5294)">
<line shape-rendering="crispEdges" stroke="#bbbbbb" stroke-width="1" x1="0" x2="-6" y1="0" y2="0"/>
<text dy=".35em" fill="#080808" font-family="sans-serif" font-size="12px" text-anchor="end" transform="rotate(0,-12,0)" x="-12" y="0">
40
</text>
</g>
<g class="tick" transform="translate(0,189.41174)">
<line shape-rendering="crispEdges" stroke="#bbbbbb" stroke-width="1" x1="0" x2="-6" y1="0" y2="0"/>
<text dy=".35em" fill="#080808" font-family="sans-serif" font-size="12px" text-anchor="end" transform="rotate(0,-12,0)" x="-12" y="0">
50
</text>
</g>
<g class="tick" transform="translate(0,135.2941)">
<line shape-rendering="crispEdges" stroke="#bbbbbb" stroke-width="1" x1="0" x2="-6" y1="0" y2="0"/>
<text dy=".35em" fill="#080808" font-family="sans-serif" font-size="12px" text-anchor="end" transform="rotate(0,-12,0)" x="-12" y="0">
60
</text>
</g>
<g class="tick" transform="translate(0,81.17645)">
<line shape-rendering="crispEdges" stroke="#bbbbbb" stroke-width="1" x1="0" x2="-6" y1="0" y2="0"/>
<text dy=".35em" fill="#080808" font-family="sans-serif" font-size="12px" text-anchor="end" transform="rotate(0,-12,0)" x="-12" y="0">
70
</text>
</g>
<g class="tick" transform="translate(0,27.058807)">
<line shape-rendering="crispEdges" stroke="#bbbbbb" stroke-width="1" x1="0" x2="-6" y1="0" y2="0"/>
<text dy=".35em" fill="#080808" font-family="sans-serif" font-size="12px" text-anchor="end" transform="rotate(0,-12,0)" x="-12" y="0">
80
</text>
</g>
</g>
<g class="views" transform="translate(60,90)">
<g>
<g class="bar" transform="translate(207.04224,0)">
<rect fill="#77ab59" height="347.32706" shape-rendering="crispEdges" stroke="#36802d" stroke-width="1" width="88.73239" x="0" y="112.67294"/>
<text dy=".35em" fill="#080808" font-family="sans-serif" font-size="14px" text-anchor="middle" x="44.366196" y="286.3365">
64.18
</text>
</g>
<g class="bar" transform="translate(108.45068,0)">
<rect fill="#77ab59" height="359.01645" shape-rendering="crispEdges" stroke="#36802d" stroke-width="1" width="88.73239" x="0" y="100.98355"/>
<text dy=".35em" fill="#080808" font-family="sans-serif" font-size="14px" text-anchor="middle" x="44.366196" y="280.49176">
66.34
</text>
</g>
<g class="bar" transform="translate(9.859131,0)">
<rect fill="#77ab59" height="404.36707" shape-rendering="crispEdges" stroke="#36802d" stroke-width="1" width="88.73239" x="0" y="55.632935"/>
<text dy=".35em" fill="#080808" font-family="sans-serif" font-size="14px" text-anchor="middle" x="44.366196" y="257.81647">
74.72
</text>
</g>
<g class="bar" transform="translate(601.40845,0)">
<rect fill="#77ab59" height="392.46115" shape-rendering="crispEdges" stroke="#36802d" stroke-width="1" width="88.73239" x="0" y="67.53885"/>
<text dy=".35em" fill="#080808" font-family="sans-serif" font-size="14px" text-anchor="middle" x="44.366196" y="263.7694">
72.52
</text>
</g>
<g class="bar" transform="translate(305.6338,0)">
<rect fill="#77ab59" height="402.20236" shape-rendering="crispEdges" stroke="#36802d" stroke-width="1" width="88.73239" x="0" y="57.797638"/>
<text dy=".35em" fill="#080808" font-family="sans-serif" font-size="14px" text-anchor="middle" x="44.366196" y="258.8988">
74.32
</text>
</g>
<g class="bar" transform="translate(404.22534,0)">
<rect fill="#77ab59" height="371.3553" shape-rendering="crispEdges" stroke="#36802d" stroke-width="1" width="88.73239" x="0" y="88.644714"/>
<text dy=".35em" fill="#080808" font-family="sans-serif" font-size="14px" text-anchor="middle" x="44.366196" y="274.32236">
68.62
</text>
</g>
<g class="bar" transform="translate(502.8169,0)">
<rect fill="#77ab59" height="350.46588" shape-rendering="crispEdges" stroke="#36802d" stroke-width="1" width="88.73239" x="0" y="109.53412"/>
<text dy=".35em" fill="#080808" font-family="sans-serif" font-size="14px" text-anchor="middle" x="44.366196" y="284.76706">
64.76
</text>
</g>
</g>
<g>
<g class="point" transform="translate(54.225327,55.632935)">
<circle cx="0" cy="0" fill="#234d20" r="5" stroke="#234d20"/>
</g>
<g class="point" transform="translate(152.81688,100.98355)">
<circle cx="0" cy="0" fill="#234d20" r="5" stroke="#234d20"/>
</g>
<g class="point" transform="translate(251.40843,112.67294)">
<circle cx="0" cy="0" fill="#234d20" r="5" stroke="#234d20"/>
</g>
<g class="point" transform="translate(350,57.797638)">
<circle cx="0" cy="0" fill="#234d20" r="5" stroke="#234d20"/>
</g>
<g class="point" transform="translate(448.59155,88.644714)">
<circle cx="0" cy="0" fill="#234d20" r="5" stroke="#234d20"/>
</g>
<g class="point" transform="translate(547.1831,109.53412)">
<circle cx="0" cy="0" fill="#234d20" r="5" stroke="#234d20"/>
</g>
<g class="point" transform="translate(645.77466,67.53885)">
<circle cx="0" cy="0" fill="#234d20" r="5" stroke="#234d20"/>
</g>
<path class="line" d="M54.225327,55.632935 L152.81688,100.98355 L251.40843,112.67294 L350,57.797638 L448.59155,88.644714 L547.1831,109.53412 L645.77466,67.53885" fill="none" stroke="#234d20" stroke-width="2"/>
</g>
</g>
<g class="title" transform="translate(400,25)">
<text dy=".35em" fill="#080808" font-family="sans-serif" font-size="24px" text-anchor="middle" x="0" y="0">
Cost of living index in Berlin
</text>
</g>
</g>
</svg>