<svg height="800" viewBox="0 0 1000 800" width="1000" xmlns="http://www.w3.org/2000/svg">
<g class="chart">
<g class="x-axis" transform="translate(40,760)">
<line shape-rendering="crispEdges" stroke="#bbbbbb" stroke-width="1" x1="0" x2="940" y1="0" y2="0"/>
<g class="tick" transform="translate(-0.000030517578,0)">
<line shape-rendering="crispEdges" stroke="#bbbbbb" stroke-width="1" x1="0" x2="0" y1="0" y2="6"/>
<text dy=".35em" fill="#080808" font-family="sans-serif" font-size="12px" text-anchor="middle" transform="rotate(0,0,16)" x="0" y="16">
A
</text>
</g>
<g class="tick" transform="translate(134.28569,0)">
<line shape-rendering="crispEdges" stroke="#bbbbbb" stroke-width="1" x1="0" x2="0" y1="0" y2="6"/>
<text dy=".35em" fill="#080808" font-family="sans-serif" font-size="12px" text-anchor="middle" transform="rotate(0,0,16)" x="0" y="16">
B
</text>
</g>
<g class="tick" transform="translate(268.5714,0)">
<line shape-rendering="crispEdges" stroke="#bbbbbb" stroke-width="1" x1="0" x2="0" y1="0" y2="6"/>
<text dy=".35em" fill="#080808" font-family="sans-serif" font-size="12px" text-anchor="middle" transform="rotate(0,0,16)" x="0" y="16">
C
</text>
</g>
<g class="tick" transform="translate(402.85715,0)">
<line shape-rendering="crispEdges" stroke="#bbbbbb" stroke-width="1" x1="0" x2="0" y1="0" y2="6"/>
<text dy=".35em" fill="#080808" font-family="sans-serif" font-size="12px" text-anchor="middle" transform="rotate(0,0,16)" x="0" y="16">
D
</text>
</g>
<g class="tick" transform="translate(537.1428,0)">
<line shape-rendering="crispEdges" stroke="#bbbbbb" stroke-width="1" x1="0" x2="0" y1="0" y2="6"/>
<text dy=".35em" fill="#080808" font-family="sans-serif" font-size="12px" text-anchor="middle" transform="rotate(0,0,16)" x="0" y="16">
E
</text>
</g>
<g class="tick" transform="translate(671.4286,0)">
<line shape-rendering="crispEdges" stroke="#bbbbbb" stroke-width="1" x1="0" x2="0" y1="0" y2="6"/>
<text dy=".35em" fill="#080808" font-family="sans-serif" font-size="12px" text-anchor="middle" transform="rotate(0,0,16)" x="0" y="16">
F
</text>
</g>
<g class="tick" transform="translate(805.71436,0)">
<line shape-rendering="crispEdges" stroke="#bbbbbb" stroke-width="1" x1="0" x2="0" y1="0" y2="6"/>
<text dy=".35em" fill="#080808" font-family="sans-serif" font-size="12px" text-anchor="middle" transform="rotate(0,0,16)" x="0" y="16">
G
</text>
</g>
<g class="tick" transform="translate(940,0)">
<line shape-rendering="crispEdges" stroke="#bbbbbb" stroke-width="1" x1="0" x2="0" y1="0" y2="6"/>
<text dy=".35em" fill="#080808" font-family="sans-serif" font-size="12px" text-anchor="middle" transform="rotate(0,0,16)" x="0" y="16">
H
</text>
</g>
<text fill="#080808" font-family="sans-serif" font-size="14px" text-anchor="middle" transform="rotate(0)" x="470" y="42">
X Values
</text>
</g>
<g class="y-axis" transform="translate(40,30)">
<line shape-rendering="crispEdges" stroke="#bbbbbb" stroke-width="1" x1="0" x2="0" y1="0" y2="730"/>
<g class="tick" transform="translate(0,730)">
<line shape-rendering="crispEdges" stroke="#bbbbbb" stroke-width="1" x1="0" x2="-6" y1="0" y2="0"/>
<text dy=".35em" fill="#080808" font-family="sans-serif" font-size="12px" text-anchor="end" transform="rotate(0,-12,0)" x="-12" y="0">
0
</text>
</g>
<g class="tick" transform="translate(0,657)">
<line shape-rendering="crispEdges" stroke="#bbbbbb" stroke-width="1" x1="0" x2="-6" y1="0" y2="0"/>
<text dy=".35em" fill="#080808" font-family="sans-serif" font-size="12px" text-anchor="end" transform="rotate(0,-12,0)" x="-12" y="0">
20
</text>
</g>
<g class="tick" transform="translate(0,584)">
<line shape-rendering="crispEdges" stroke="#bbbbbb" stroke-width="1" x1="0" x2="-6" y1="0" y2="0"/>
<text dy=".35em" fill="#080808" font-family="sans-serif" font-size="12px" text-anchor="end" transform="rotate(0,-12,0)" x="-12" y="0">
40
</text>
</g>
<g class="tick" transform="translate(0,511)">
<line shape-rendering="crispEdges" stroke="#bbbbbb" stroke-width="1" x1="0" x2="-6" y1="0" y2="0"/>
<text dy=".35em" fill="#080808" font-family="sans-serif" font-size="12px" text-anchor="end" transform="rotate(0,-12,0)" x="-12" y="0">
60
</text>
</g>
<g class="tick" transform="translate(0,438)">
<line shape-rendering="crispEdges" stroke="#bbbbbb" stroke-width="1" x1="0" x2="-6" y1="0" y2="0"/>
<text dy=".35em" fill="#080808" font-family="sans-serif" font-size="12px" text-anchor="end" transform="rotate(0,-12,0)" x="-12" y="0">
80
</text>
</g>
<g class="tick" transform="translate(0,365)">
<line shape-rendering="crispEdges" stroke="#bbbbbb" stroke-width="1" x1="0" x2="-6" y1="0" y2="0"/>
<text dy=".35em" fill="#080808" font-family="sans-serif" font-size="12px" text-anchor="end" transform="rotate(0,-12,0)" x="-12" y="0">
100
</text>
</g>
<g class="tick" transform="translate(0,291.99997)">
<line shape-rendering="crispEdges" stroke="#bbbbbb" stroke-width="1" x1="0" x2="-6" y1="0" y2="0"/>
<text dy=".35em" fill="#080808" font-family="sans-serif" font-size="12px" text-anchor="end" transform="rotate(0,-12,0)" x="-12" y="0">
120
</text>
</g>
<g class="tick" transform="translate(0,219)">
<line shape-rendering="crispEdges" stroke="#bbbbbb" stroke-width="1" x1="0" x2="-6" y1="0" y2="0"/>
<text dy=".35em" fill="#080808" font-family="sans-serif" font-size="12px" text-anchor="end" transform="rotate(0,-12,0)" x="-12" y="0">
140
</text>
</g>
<g class="tick" transform="translate(0,146)">
<line shape-rendering="crispEdges" stroke="#bbbbbb" stroke-width="1" x1="0" x2="-6" y1="0" y2="0"/>
<text dy=".35em" fill="#080808" font-family="sans-serif" font-size="12px" text-anchor="end" transform="rotate(0,-12,0)" x="-12" y="0">
160
</text>
</g>
<g class="tick" transform="translate(0,73)">
<line shape-rendering="crispEdges" stroke="#bbbbbb" stroke-width="1" x1="0" x2="-6" y1="0" y2="0"/>
<text dy=".35em" fill="#080808" font-family="sans-serif" font-size="12px" text-anchor="end" transform="rotate(0,-12,0)" x="-12" y="0">
180
</text>
</g>
<g class="tick" transform="translate(0,0)">
<line shape-rendering="crispEdges" stroke="#bbbbbb" stroke-width="1" x1="0" x2="-6" y1="0" y2="0"/>
<text dy=".35em" fill="#080808" font-family="sans-serif" font-size="12px" text-anchor="end" transform="rotate(0,-12,0)" x="-12" y="0">
200
</text>
</g>
<text fill="#080808" font-family="sans-serif" font-size="14px" text-anchor="middle" transform="rotate(-90)" x="-365" y="-42">
Y Values
</text>
</g>
<g class="views" transform="translate(40,30)">
<g>
<g class="point" transform="translate(-0.000030517578,657)">
<text dy=".35em" fill="#080808" font-family="sans-serif" font-size="14px" text-anchor="end" x="-9" y="13">
20
</text>
</g>
<g class="point" transform="translate(134.28569,474.5)">
<text dy=".35em" fill="#080808" font-family="sans-serif" font-size="14px" text-anchor="end" x="-9" y="13">
70
</text>
</g>
<g class="point" transform="translate(268.5714,255.50003)">
<text dy=".35em" fill="#080808" font-family="sans-serif" font-size="14px" text-anchor="end" x="-9" y="13">
130
</text>
</g>
<g class="point" transform="translate(402.85715,73)">
<text dy=".35em" fill="#080808" font-family="sans-serif" font-size="14px" text-anchor="end" x="-9" y="13">
180
</text>
</g>
<g class="point" transform="translate(537.1428,657)">
<text dy=".35em" fill="#080808" font-family="sans-serif" font-size="14px" text-anchor="end" x="-9" y="13">
20
</text>
</g>
<g class="point" transform="translate(671.4286,448.95)">
<text dy=".35em" fill="#080808" font-family="sans-serif" font-size="14px" text-anchor="end" x="-9" y="13">
77
</text>
</g>
<g class="point" transform="translate(805.71436,219)">
<text dy=".35em" fill="#080808" font-family="sans-serif" font-size="14px" text-anchor="end" x="-9" y="13">
140
</text>
</g>
<g class="point" transform="translate(940,36.5)">
<text dy=".35em" fill="#080808" font-family="sans-serif" font-size="14px" text-anchor="end" x="-9" y="13">
190
</text>
</g>
<path class="line" d="M-0.000030517578,657 L134.28569,474.5 L268.5714,255.50003 L402.85715,73 L537.1428,657 L671.4286,448.95 L805.71436,219 L940,36.5" fill="none" stroke="#0e3569" stroke-width="2"/>
</g>
<g>
<g class="point" transform="translate(-0.000030517578,532.9)">
<text dy=".35em" fill="#080808" font-family="sans-serif" font-size="14px" text-anchor="start" x="9" y="-13">
54
</text>
</g>
<g class="point" transform="translate(134.28569,584)">
<text dy=".35em" fill="#080808" font-family="sans-serif" font-size="14px" text-anchor="start" x="9" y="-13">
40
</text>
</g>
<g class="point" transform="translate(268.5714,547.5)">
<text dy=".35em" fill="#080808" font-family="sans-serif" font-size="14px" text-anchor="start" x="9" y="-13">
50
</text>
</g>
<g class="point" transform="translate(402.85715,448.95)">
<text dy=".35em" fill="#080808" font-family="sans-serif" font-size="14px" text-anchor="start" x="9" y="-13">
77
</text>
</g>
<g class="point" transform="translate(537.1428,397.84998)">
<text dy=".35em" fill="#080808" font-family="sans-serif" font-size="14px" text-anchor="start" x="9" y="-13">
91
</text>
</g>
<g class="point" transform="translate(671.4286,536.55)">
<text dy=".35em" fill="#080808" font-family="sans-serif" font-size="14px" text-anchor="start" x="9" y="-13">
53
</text>
</g>
<g class="point" transform="translate(805.71436,689.85)">
<text dy=".35em" fill="#080808" font-family="sans-serif" font-size="14px" text-anchor="start" x="9" y="-13">
11
</text>
</g>
<g class="point" transform="translate(940,719.05)">
<text dy=".35em" fill="#080808" font-family="sans-serif" font-size="14px" text-anchor="start" x="9" y="-13">
3
</text>
</g>
<path class="line" d="M-0.000030517578,532.9 L134.28569,584 L268.5714,547.5 L402.85715,448.95 L537.1428,397.84998 L671.4286,536.55 L805.71436,689.85 L940,719.05" fill="none" stroke="#5095e5" stroke-width="2"/>
</g>
</g>
<g class="title" transform="translate(500,25)">
<text dy=".35em" fill="#080808" font-family="sans-serif" font-size="24px" text-anchor="middle" x="0" y="0">
Two Lines Chart
</text>
</g>
</g>
</svg>